<svg width="1536" height="742" xmlns="http://www.w3.org/2000/svg"><g><path d="M-53,-39L-121,33L99,29Z" fill="#f0faee" stroke="#f0faee"/><path d="M-53,-39L99,29L128,-34Z" fill="#edf8eb" stroke="#edf8eb"/><path d="M-53,-39L128,-34L212,-120Z" fill="#ebf7ea" stroke="#ebf7ea"/><path d="M128,-34L99,29L215,101Z" fill="#e4f6e5" stroke="#e4f6e5"/><path d="M128,-34L215,101L212,-120Z" fill="#e6f5e6" stroke="#e6f5e6"/><path d="M212,-120L215,101L350,71Z" fill="#e0f4e2" stroke="#e0f4e2"/><path d="M212,-120L350,71L434,-50Z" fill="#def2e1" stroke="#def2e1"/><path d="M212,-120L434,-50L649,-41Z" fill="#d8f0dd" stroke="#d8f0dd"/><path d="M212,-120L649,-41L812,-69Z" fill="#cfecdb" stroke="#cfecdb"/><path d="M212,-120L812,-69L999,-86Z" fill="#c4e5de" stroke="#c4e5de"/><path d="M212,-120L999,-86L1429,-122Z" fill="#afd9e2" stroke="#afd9e2"/><path d="M434,-50L350,71L501,68Z" fill="#d5f0db" stroke="#d5f0db"/><path d="M434,-50L501,68L570,-32Z" fill="#d4eedb" stroke="#d4eedb"/><path d="M434,-50L570,-32L649,-41Z" fill="#d0ecdb" stroke="#d0ecdb"/><path d="M570,-32L501,68L693,110Z" fill="#c7ead8" stroke="#c7ead8"/><path d="M570,-32L693,110L649,-41Z" fill="#c6e7dc" stroke="#c6e7dc"/><path d="M649,-41L693,110L797,65Z" fill="#bbe3db" stroke="#bbe3db"/><path d="M649,-41L797,65L812,-69Z" fill="#bce0df" stroke="#bce0df"/><path d="M812,-69L797,65L976,62Z" fill="#afdae0" stroke="#afdae0"/><path d="M812,-69L976,62L999,-86Z" fill="#abd6e3" stroke="#abd6e3"/><path d="M999,-86L976,62L1153,-47Z" fill="#9fd0e5" stroke="#9fd0e5"/><path d="M999,-86L1153,-47L1429,-122Z" fill="#91c7e8" stroke="#91c7e8"/><path d="M1153,-47L976,62L1156,91Z" fill="#96cde3" stroke="#96cde3"/><path d="M1153,-47L1156,91L1261,-44Z" fill="#91c7e8" stroke="#91c7e8"/><path d="M1153,-47L1261,-44L1429,-122Z" fill="#88c2ea" stroke="#88c2ea"/><path d="M1261,-44L1156,91L1316,133Z" fill="#85c4e5" stroke="#85c4e5"/><path d="M1261,-44L1316,133L1393,26Z" fill="#7fc0e8" stroke="#7fc0e8"/><path d="M1261,-44L1393,26L1429,-122Z" fill="#80bdec" stroke="#80bdec"/><path d="M1429,-122L1393,26L1623,-29Z" fill="#80b6ee" stroke="#80b6ee"/><path d="M1429,-122L1623,-29L1684,-104Z" fill="#80b1f0" stroke="#80b1f0"/><path d="M1623,-29L1393,26L1586,103Z" fill="#7cb3ed" stroke="#7cb3ed"/><path d="M1623,-29L1586,103L1678,78Z" fill="#7aaeed" stroke="#7aaeed"/><path d="M1623,-29L1678,78L1684,-104Z" fill="#80acf2" stroke="#80acf2"/><path d="M1684,-104L1678,78L1768,259Z" fill="#77a9ed" stroke="#77a9ed"/><path d="M-121,33L-132,687L-98,242Z" fill="#c9f3e2" stroke="#c9f3e2"/><path d="M-121,33L-98,242L99,29Z" fill="#e6fae7" stroke="#e6fae7"/><path d="M99,29L-98,242L108,284Z" fill="#d9f8dd" stroke="#d9f8dd"/><path d="M99,29L108,284L215,101Z" fill="#d9f6dd" stroke="#d9f6dd"/><path d="M215,101L108,284L182,270Z" fill="#cef6d6" stroke="#cef6d6"/><path d="M215,101L182,270L418,240Z" fill="#caf3d3" stroke="#caf3d3"/><path d="M215,101L418,240L350,71Z" fill="#cef2d6" stroke="#cef2d6"/><path d="M350,71L418,240L501,68Z" fill="#cbf0d4" stroke="#cbf0d4"/><path d="M501,68L418,240L575,183Z" fill="#c3efce" stroke="#c3efce"/><path d="M501,68L575,183L693,110Z" fill="#bfead2" stroke="#bfead2"/><path d="M693,110L575,183L684,207Z" fill="#b4e6d0" stroke="#b4e6d0"/><path d="M693,110L684,207L868,182Z" fill="#aae1d2" stroke="#aae1d2"/><path d="M693,110L868,182L797,65Z" fill="#acded6" stroke="#acded6"/><path d="M797,65L868,182L976,62Z" fill="#a4d9da" stroke="#a4d9da"/><path d="M976,62L868,182L999,259Z" fill="#96d5d6" stroke="#96d5d6"/><path d="M976,62L999,259L1156,91Z" fill="#90d0da" stroke="#90d0da"/><path d="M1156,91L999,259L1145,272Z" fill="#83ccd6" stroke="#83ccd6"/><path d="M1156,91L1145,272L1217,183Z" fill="#7fc8d9" stroke="#7fc8d9"/><path d="M1156,91L1217,183L1316,133Z" fill="#7ec5de" stroke="#7ec5de"/><path d="M1316,133L1217,183L1400,180Z" fill="#72c0de" stroke="#72c0de"/><path d="M1316,133L1400,180L1393,26Z" fill="#73bde3" stroke="#73bde3"/><path d="M1393,26L1400,180L1586,103Z" fill="#74b8e6" stroke="#74b8e6"/><path d="M1586,103L1400,180L1620,276Z" fill="#6bb3e1" stroke="#6bb3e1"/><path d="M1586,103L1620,276L1678,78Z" fill="#6faee5" stroke="#6faee5"/><path d="M1678,78L1620,276L1768,259Z" fill="#69aae2" stroke="#69aae2"/><path d="M-98,242L-132,687L-95,424Z" fill="#a9e2e8" stroke="#a9e2e8"/><path d="M-98,242L-95,424L46,381Z" fill="#beeee1" stroke="#beeee1"/><path d="M-98,242L46,381L108,284Z" fill="#c6f2dc" stroke="#c6f2dc"/><path d="M108,284L46,381L180,361Z" fill="#b7ebdb" stroke="#b7ebdb"/><path d="M108,284L180,361L182,270Z" fill="#beefd7" stroke="#beefd7"/><path d="M182,270L180,361L348,379Z" fill="#b2e9d5" stroke="#b2e9d5"/><path d="M182,270L348,379L418,240Z" fill="#b7ecd1" stroke="#b7ecd1"/><path d="M418,240L348,379L514,385Z" fill="#a8e5ce" stroke="#a8e5ce"/><path d="M418,240L514,385L575,183Z" fill="#b3ebc8" stroke="#b3ebc8"/><path d="M575,183L514,385L711,326Z" fill="#a3e3cb" stroke="#a3e3cb"/><path d="M575,183L711,326L684,207Z" fill="#abe6ca" stroke="#abe6ca"/><path d="M684,207L711,326L868,182Z" fill="#a1e0cc" stroke="#a1e0cc"/><path d="M868,182L711,326L835,406Z" fill="#8dd6d0" stroke="#8dd6d0"/><path d="M868,182L835,406L999,259Z" fill="#89d3d1" stroke="#89d3d1"/><path d="M999,259L835,406L999,423Z" fill="#72c7d6" stroke="#72c7d6"/><path d="M999,259L999,423L1097,328Z" fill="#6fc5d6" stroke="#6fc5d6"/><path d="M999,259L1097,328L1145,272Z" fill="#77c9d4" stroke="#77c9d4"/><path d="M1145,272L1097,328L1302,419Z" fill="#60bcd9" stroke="#60bcd9"/><path d="M1145,272L1302,419L1217,183Z" fill="#68c0d7" stroke="#68c0d7"/><path d="M1217,183L1302,419L1426,350Z" fill="#58b7db" stroke="#58b7db"/><path d="M1217,183L1426,350L1400,180Z" fill="#67bed9" stroke="#67bed9"/><path d="M1400,180L1426,350L1565,350Z" fill="#59b1dd" stroke="#59b1dd"/><path d="M1400,180L1565,350L1620,276Z" fill="#5fb1dd" stroke="#5fb1dd"/><path d="M1620,276L1565,350L1767,345Z" fill="#52a3e2" stroke="#52a3e2"/><path d="M1620,276L1767,345L1768,259Z" fill="#59a3e2" stroke="#59a3e2"/><path d="M-95,424L-132,687L-44,551Z" fill="#8fd5ed" stroke="#8fd5ed"/><path d="M-95,424L-44,551L46,381Z" fill="#a4e0e5" stroke="#a4e0e5"/><path d="M46,381L-44,551L129,487Z" fill="#9bdce4" stroke="#9bdce4"/><path d="M46,381L129,487L180,361Z" fill="#a6e2dd" stroke="#a6e2dd"/><path d="M180,361L129,487L229,501Z" fill="#99dcdd" stroke="#99dcdd"/><path d="M180,361L229,501L348,379Z" fill="#9edfd9" stroke="#9edfd9"/><path d="M348,379L229,501L381,549Z" fill="#8bd6d9" stroke="#8bd6d9"/><path d="M348,379L381,549L476,536Z" fill="#84d3d7" stroke="#84d3d7"/><path d="M348,379L476,536L514,385Z" fill="#8fd8d3" stroke="#8fd8d3"/><path d="M514,385L476,536L676,508Z" fill="#7ccfd3" stroke="#7ccfd3"/><path d="M514,385L676,508L711,326Z" fill="#86d3d1" stroke="#86d3d1"/><path d="M711,326L676,508L800,482Z" fill="#74cad5" stroke="#74cad5"/><path d="M711,326L800,482L835,406Z" fill="#78cbd4" stroke="#78cbd4"/><path d="M835,406L800,482L995,555Z" fill="#5cbcda" stroke="#5cbcda"/><path d="M835,406L995,555L999,423Z" fill="#5abadb" stroke="#5abadb"/><path d="M999,423L995,555L1156,505Z" fill="#47b0de" stroke="#47b0de"/><path d="M999,423L1156,505L1097,328Z" fill="#56b8db" stroke="#56b8db"/><path d="M1097,328L1156,505L1302,419Z" fill="#4db2dd" stroke="#4db2dd"/><path d="M1302,419L1156,505L1324,526Z" fill="#35a6e2" stroke="#35a6e2"/><path d="M1302,419L1324,526L1440,486Z" fill="#2ea1e4" stroke="#2ea1e4"/><path d="M1302,419L1440,486L1426,350Z" fill="#3ba6e1" stroke="#3ba6e1"/><path d="M1426,350L1440,486L1565,350Z" fill="#40a4e2" stroke="#40a4e2"/><path d="M1565,350L1440,486L1604,560Z" fill="#2f98e7" stroke="#2f98e7"/><path d="M1565,350L1604,560L1673,572Z" fill="#2890ea" stroke="#2890ea"/><path d="M1565,350L1673,572L1767,345Z" fill="#3a96e7" stroke="#3a96e7"/><path d="M1767,345L1673,572L1739,859Z" fill="#117df1" stroke="#117df1"/><path d="M-44,551L-132,687L102,701Z" fill="#75c8ee" stroke="#75c8ee"/><path d="M-44,551L102,701L129,487Z" fill="#80cee8" stroke="#80cee8"/><path d="M129,487L102,701L204,682Z" fill="#71c7e7" stroke="#71c7e7"/><path d="M129,487L204,682L229,501Z" fill="#7fcee2" stroke="#7fcee2"/><path d="M229,501L204,682L381,549Z" fill="#75cae0" stroke="#75cae0"/><path d="M381,549L204,682L340,712Z" fill="#62c1e2" stroke="#62c1e2"/><path d="M381,549L340,712L529,618Z" fill="#61c1dd" stroke="#61c1dd"/><path d="M381,549L529,618L476,536Z" fill="#6dc7d9" stroke="#6dc7d9"/><path d="M476,536L529,618L676,508Z" fill="#69c5d7" stroke="#69c5d7"/><path d="M676,508L529,618L652,621Z" fill="#5cbeda" stroke="#5cbeda"/><path d="M676,508L652,621L800,482Z" fill="#5ebed9" stroke="#5ebed9"/><path d="M800,482L652,621L866,724Z" fill="#47b2df" stroke="#47b2df"/><path d="M800,482L866,724L979,658Z" fill="#39aae1" stroke="#39aae1"/><path d="M800,482L979,658L995,555Z" fill="#43aedf" stroke="#43aedf"/><path d="M995,555L979,658L1118,629Z" fill="#2ca2e4" stroke="#2ca2e4"/><path d="M995,555L1118,629L1156,505Z" fill="#33a5e3" stroke="#33a5e3"/><path d="M1156,505L1118,629L1317,649Z" fill="#219be6" stroke="#219be6"/><path d="M1156,505L1317,649L1324,526Z" fill="#229ce6" stroke="#229ce6"/><path d="M1324,526L1317,649L1412,673Z" fill="#0c90ea" stroke="#0c90ea"/><path d="M1324,526L1412,673L1440,486Z" fill="#1894e9" stroke="#1894e9"/><path d="M1440,486L1412,673L1604,560Z" fill="#158deb" stroke="#158deb"/><path d="M1604,560L1412,673L1547,705Z" fill="#0482ef" stroke="#0482ef"/><path d="M1604,560L1547,705L1672,706Z" fill="#017cf1" stroke="#017cf1"/><path d="M1604,560L1672,706L1673,572Z" fill="#0c7ff1" stroke="#0c7ff1"/><path d="M1673,572L1672,706L1739,859Z" fill="#0070f3" stroke="#0070f3"/><path d="M-132,687L-131,812L102,701Z" fill="#73bdef" stroke="#73bdef"/><path d="M102,701L-131,812L114,834Z" fill="#6fb6ec" stroke="#6fb6ec"/><path d="M102,701L114,834L245,798Z" fill="#68b3e8" stroke="#68b3e8"/><path d="M102,701L245,798L204,682Z" fill="#66b9e6" stroke="#66b9e6"/><path d="M204,682L245,798L340,712Z" fill="#62b7e3" stroke="#62b7e3"/><path d="M340,712L245,798L333,793Z" fill="#60b2e2" stroke="#60b2e2"/><path d="M340,712L333,793L484,848Z" fill="#5baddf" stroke="#5baddf"/><path d="M340,712L484,848L529,618Z" fill="#58b4dd" stroke="#58b4dd"/><path d="M529,618L484,848L652,765Z" fill="#50aedb" stroke="#50aedb"/><path d="M529,618L652,765L652,621Z" fill="#4ab4dc" stroke="#4ab4dc"/><path d="M652,621L652,765L866,724Z" fill="#3fa9df" stroke="#3fa9df"/><path d="M866,724L652,765L861,806Z" fill="#399de0" stroke="#399de0"/><path d="M866,724L861,806L964,838Z" fill="#2e94e2" stroke="#2e94e2"/><path d="M866,724L964,838L979,658Z" fill="#2a98e3" stroke="#2a98e3"/><path d="M979,658L964,838L1084,825Z" fill="#2390e4" stroke="#2390e4"/><path d="M979,658L1084,825L1118,629Z" fill="#1e96e5" stroke="#1e96e5"/><path d="M1118,629L1084,825L1244,878Z" fill="#1587e7" stroke="#1587e7"/><path d="M1118,629L1244,878L1317,649Z" fill="#0e8ae9" stroke="#0e8ae9"/><path d="M1317,649L1244,878L1419,846Z" fill="#047beb" stroke="#047beb"/><path d="M1317,649L1419,846L1412,673Z" fill="#0081ec" stroke="#0081ec"/><path d="M1412,673L1419,846L1547,705Z" fill="#007aee" stroke="#007aee"/><path d="M1547,705L1419,846L1582,798Z" fill="#0071ef" stroke="#0071ef"/><path d="M1547,705L1582,798L1672,706Z" fill="#0072f1" stroke="#0072f1"/><path d="M1672,706L1582,798L1739,859Z" fill="#0068f2" stroke="#0068f2"/><path d="M114,834L1244,878L484,848Z" fill="#4a9cdc" stroke="#4a9cdc"/><path d="M114,834L484,848L245,798Z" fill="#61abe3" stroke="#61abe3"/><path d="M245,798L484,848L333,793Z" fill="#5dabe0" stroke="#5dabe0"/><path d="M484,848L1244,878L964,838Z" fill="#2e8ce2" stroke="#2e8ce2"/><path d="M484,848L964,838L861,806Z" fill="#3b96e0" stroke="#3b96e0"/><path d="M484,848L861,806L652,765Z" fill="#459fdd" stroke="#459fdd"/><path d="M964,838L1244,878L1084,825Z" fill="#1b82e6" stroke="#1b82e6"/><path d="M1244,878L1739,859L1419,846Z" fill="#006aee" stroke="#006aee"/><path d="M1419,846L1739,859L1582,798Z" fill="#0067f0" stroke="#0067f0"/></g></svg>